<?xml version="1.0" encoding="utf-8"?>
<!-- Generator: Adobe Illustrator 16.0.0, SVG Export Plug-In . SVG Version: 6.00 Build 0)  -->
<!DOCTYPE svg PUBLIC "-//W3C//DTD SVG 1.1//EN" "http://www.w3.org/Graphics/SVG/1.1/DTD/svg11.dtd">
<svg version="1.1" id="set" xmlns="http://www.w3.org/2000/svg" xmlns:xlink="http://www.w3.org/1999/xlink" x="0px" y="0px"
	 width="250px" height="250px" viewBox="0 0 576 576" enable-background="new 0 0 576 576" xml:space="preserve">
<g id="_x31_">
	<path id="outline" fill="#030403" d="M481.468,94.539C429.789,42.862,361.083,14.4,288,14.4
		c-73.079,0-141.79,28.462-193.463,80.139C42.863,146.21,14.4,214.92,14.4,288c0,73.082,28.462,141.789,80.137,193.467
		C146.21,533.141,214.921,561.6,288,561.6c73.083,0,141.789-28.459,193.468-80.133c51.677-51.678,80.133-120.385,80.133-193.467
		C561.601,214.92,533.145,146.21,481.468,94.539z M288,547.773C144.764,547.773,28.229,431.24,28.229,288
		C28.229,144.763,144.764,28.232,288,28.232c143.237,0,259.774,116.531,259.774,259.768C547.774,431.24,431.237,547.773,288,547.773
		z"/>
	<path id="face" fill="#FCE536" d="M288,28.232C144.764,28.232,28.229,144.763,28.229,288c0,143.24,116.534,259.773,259.771,259.773
		c143.237,0,259.774-116.533,259.774-259.773C547.774,144.763,431.237,28.232,288,28.232z M362.816,153.877
		c13.198,0,23.894,22.163,23.894,49.496c0,27.339-10.695,49.496-23.894,49.496c-13.199,0-23.896-22.156-23.896-49.496
		C338.921,176.041,349.617,153.877,362.816,153.877z M213.189,153.877c13.195,0,23.891,22.163,23.891,49.496
		c0,27.339-10.696,49.496-23.891,49.496c-13.196,0-23.896-22.156-23.896-49.496C189.293,176.041,199.993,153.877,213.189,153.877z
		 M488.638,332.231c-0.924,0.429-1.9,0.63-2.854,0.63c-2.572,0-5.03-1.458-6.189-3.935c-0.241-0.495-3.048-6.108-9.646-11.114
		c-19.925,71.578-95.045,122.803-181.76,122.803h-0.375c-86.701,0-161.821-51.211-181.752-122.783
		c-6.809,5.158-9.583,10.947-9.637,11.062c-1.153,2.493-3.619,3.968-6.199,3.968c-0.958,0-1.937-0.201-2.858-0.63
		c-3.421-1.581-4.919-5.636-3.341-9.061c0.557-1.2,13.966-29.421,51.926-26.769c3.759,0.258,6.598,3.52,6.336,7.281
		c-0.258,3.765-3.516,6.613-7.282,6.346c-6.393-0.439-11.842,0.254-16.466,1.591c17.183,67.071,87.629,115.341,169.273,115.341
		h0.375c81.648,0,152.104-48.28,169.278-115.354c-4.622-1.329-10.07-2.021-16.471-1.577c-3.749,0.268-7.023-2.581-7.281-6.346
		c-0.259-3.762,2.581-7.023,6.343-7.281c37.896-2.646,51.363,25.568,51.918,26.769C493.558,326.596,492.06,330.65,488.638,332.231z"
		/>
	<g id="emo">
		<path fill="#030403" d="M213.189,252.869c13.195,0,23.891-22.156,23.891-49.496c0-27.333-10.696-49.496-23.891-49.496
			c-13.196,0-23.896,22.163-23.896,49.496C189.293,230.713,199.993,252.869,213.189,252.869z"/>
		<path fill="#030403" d="M362.816,252.869c13.198,0,23.894-22.156,23.894-49.496c0-27.333-10.695-49.496-23.894-49.496
			c-13.199,0-23.896,22.163-23.896,49.496C338.921,230.713,349.617,252.869,362.816,252.869z"/>
		<path fill="#030403" d="M491.975,323.171c-0.555-1.2-14.022-29.414-51.918-26.769c-3.762,0.258-6.602,3.52-6.343,7.281
			c0.258,3.765,3.532,6.613,7.281,6.346c6.4-0.443,11.849,0.248,16.471,1.577c-17.175,67.074-87.63,115.354-169.278,115.354h-0.375
			c-81.644,0-152.09-48.27-169.273-115.341c4.624-1.337,10.073-2.03,16.466-1.591c3.766,0.268,7.024-2.581,7.282-6.346
			c0.261-3.762-2.577-7.023-6.336-7.281c-37.959-2.652-51.369,25.568-51.926,26.769c-1.578,3.425-0.08,7.479,3.341,9.061
			c0.921,0.429,1.9,0.63,2.858,0.63c2.58,0,5.046-1.475,6.199-3.968c0.054-0.114,2.829-5.903,9.637-11.062
			c19.931,71.572,95.051,122.783,181.752,122.783h0.375c86.715,0,161.835-51.225,181.76-122.803
			c6.599,5.006,9.405,10.619,9.646,11.114c1.159,2.477,3.617,3.935,6.189,3.935c0.954,0,1.931-0.201,2.854-0.63
			C492.06,330.65,493.558,326.596,491.975,323.171z"/>
	</g>
</g>
</svg>
