<?xml version="1.0" encoding="utf-8"?>
<!-- Generator: Adobe Illustrator 16.0.0, SVG Export Plug-In . SVG Version: 6.00 Build 0)  -->
<!DOCTYPE svg PUBLIC "-//W3C//DTD SVG 1.1//EN" "http://www.w3.org/Graphics/SVG/1.1/DTD/svg11.dtd">
<svg version="1.1" id="set" xmlns="http://www.w3.org/2000/svg" xmlns:xlink="http://www.w3.org/1999/xlink" x="0px" y="0px"
	 width="250px" height="250px" viewBox="0 0 576 576" enable-background="new 0 0 576 576" xml:space="preserve">
<g id="_x34__1_">
	<path id="outline_3_" fill="#030403" d="M481.467,94.539c-51.678-51.677-120.385-80.14-193.465-80.14
		c-73.087,0-141.79,28.462-193.469,80.14C42.855,146.209,14.4,214.917,14.4,288c0,73.084,28.455,141.791,80.133,193.469
		c51.679,51.672,120.382,80.133,193.469,80.133c73.08,0,141.787-28.461,193.465-80.133C533.145,429.791,561.6,361.084,561.6,288
		C561.6,214.917,533.145,146.209,481.467,94.539z M288.002,547.773C144.761,547.773,28.226,431.238,28.226,288
		c0-143.237,116.535-259.768,259.776-259.768c143.234,0,259.772,116.531,259.772,259.768
		C547.774,431.238,431.236,547.773,288.002,547.773z"/>
	<path id="face_3_" fill="#FCE536" d="M288.002,28.232C144.761,28.232,28.226,144.763,28.226,288
		c0,143.238,116.535,259.773,259.776,259.773c143.234,0,259.772-116.535,259.772-259.773
		C547.774,144.763,431.236,28.232,288.002,28.232z M364.634,153.877c13.194,0,23.896,22.156,23.896,49.497
		c0,27.333-10.701,49.496-23.896,49.496c-13.196,0-23.896-22.163-23.896-49.496C340.738,176.033,351.438,153.877,364.634,153.877z
		 M215.006,153.877c13.195,0,23.896,22.156,23.896,49.497c0,27.333-10.7,49.496-23.896,49.496s-23.896-22.163-23.896-49.496
		C191.11,176.033,201.811,153.877,215.006,153.877z M422.316,367.297c-1.324,1.266-3.029,1.896-4.721,1.896
		c-1.797,0-3.594-0.707-4.937-2.104c-32.879-34.375-76.906-53.297-123.974-53.297h-0.684c-47.066,0-91.098,18.922-123.973,53.297
		c-2.608,2.721-6.93,2.816-9.657,0.207c-2.722-2.6-2.815-6.922-0.216-9.65c35.486-37.086,83.016-57.502,133.836-57.502
		c0.006,0,0.006,0,0.01,0h0.684c50.83,0,98.356,20.416,133.838,57.502C425.135,360.375,425.037,364.697,422.316,367.297z"/>
	<g id="emo_3_">
		<path fill="#030403" d="M215.006,252.87c13.195,0,23.896-22.163,23.896-49.496c0-27.341-10.7-49.497-23.896-49.497
			s-23.896,22.156-23.896,49.497C191.11,230.707,201.811,252.87,215.006,252.87z"/>
		<path fill="#030403" d="M364.634,252.87c13.194,0,23.896-22.163,23.896-49.496c0-27.341-10.701-49.497-23.896-49.497
			c-13.196,0-23.896,22.156-23.896,49.497C340.738,230.707,351.438,252.87,364.634,252.87z"/>
		<path fill="#030403" d="M422.523,357.646c-35.481-37.086-83.008-57.502-133.838-57.502h-0.684c-0.004,0-0.004,0-0.01,0
			c-50.82,0-98.35,20.416-133.836,57.502c-2.6,2.729-2.506,7.051,0.216,9.65c2.728,2.609,7.049,2.514,9.657-0.207
			c32.875-34.375,76.906-53.297,123.973-53.297h0.684c47.067,0,91.095,18.922,123.974,53.297c1.343,1.396,3.14,2.104,4.937,2.104
			c1.691,0,3.396-0.631,4.721-1.896C425.037,364.697,425.135,360.375,422.523,357.646z"/>
	</g>
</g>
</svg>
