<?xml version="1.0" encoding="utf-8"?>
<!-- Generator: Adobe Illustrator 16.0.0, SVG Export Plug-In . SVG Version: 6.00 Build 0)  -->
<!DOCTYPE svg PUBLIC "-//W3C//DTD SVG 1.1//EN" "http://www.w3.org/Graphics/SVG/1.1/DTD/svg11.dtd">
<svg version="1.1" id="set" xmlns="http://www.w3.org/2000/svg" xmlns:xlink="http://www.w3.org/1999/xlink" x="0px" y="0px"
	 width="250px" height="250px" viewBox="0 0 576 576" enable-background="new 0 0 576 576" xml:space="preserve">
<g id="_x35__1_">
	<path id="outline_4_" fill="#030403" d="M481.469,94.537C429.79,42.862,361.084,14.4,288.001,14.4
		c-73.079,0-141.789,28.462-193.463,80.137c-51.674,51.678-80.137,120.384-80.137,193.468c0,73.077,28.463,141.784,80.137,193.46
		c51.674,51.678,120.384,80.134,193.463,80.134c73.083,0,141.789-28.456,193.468-80.134c51.677-51.676,80.133-120.383,80.133-193.46
		C561.602,214.921,533.146,146.215,481.469,94.537z M288.001,547.773c-143.236,0-259.771-116.531-259.771-259.769
		c0-143.241,116.534-259.776,259.771-259.776c143.237,0,259.774,116.535,259.774,259.776
		C547.775,431.242,431.238,547.773,288.001,547.773z"/>
	<path id="face_4_" fill="#FCE536" d="M288.001,28.229c-143.236,0-259.771,116.535-259.771,259.776
		c0,143.237,116.534,259.769,259.771,259.769c143.237,0,259.774-116.531,259.774-259.769
		C547.775,144.764,431.238,28.229,288.001,28.229z M317.67,218.188c0.12-0.44,0.289-0.875,0.503-1.298
		c29.246-58.033,72.007-54.214,73.814-54.02c3.791,0.402,6.547,3.807,6.145,7.604c-0.398,3.783-3.786,6.531-7.56,6.152
		c-1.293-0.113-24.911-1.749-47.013,25.872c5.991-1.755,12.13-2.437,18.383-1.991c26.29,1.877,44.646,22.867,45.418,23.763
		c2.493,2.894,2.165,7.261-0.731,9.751c-1.302,1.125-2.908,1.676-4.503,1.676c-1.943,0-3.867-0.812-5.233-2.393
		c-0.155-0.176-15.525-17.596-36.029-19.007c-11.239-0.774-22.23,3.448-32.665,12.556c-2.878,2.514-7.244,2.215-9.758-0.66
		C316.444,223.908,316.229,220.678,317.67,218.188z M213.19,153.877c13.195,0,23.891,22.16,23.891,49.496
		c0,27.337-10.695,49.496-23.891,49.496c-13.197,0-23.896-22.159-23.896-49.496C189.294,176.037,199.993,153.877,213.19,153.877z
		 M488.639,332.23c-0.924,0.429-1.9,0.63-2.854,0.63c-2.572,0-5.03-1.454-6.189-3.934c-0.241-0.495-3.048-6.105-9.646-11.112
		c-19.925,71.582-95.045,122.804-181.76,122.804h-0.375c-86.703,0-161.82-51.214-181.752-122.782
		c-6.815,5.152-9.587,10.951-9.637,11.058c-1.153,2.498-3.619,3.967-6.206,3.967c-0.955,0-1.931-0.201-2.854-0.63
		c-3.418-1.582-4.916-5.637-3.338-9.055c0.557-1.206,13.966-29.427,51.919-26.773c3.766,0.262,6.604,3.52,6.343,7.279
		c-0.258,3.765-3.516,6.613-7.281,6.346c-6.394-0.437-11.843,0.254-16.466,1.588c17.176,67.072,87.629,115.345,169.272,115.345
		h0.375c81.648,0,152.104-48.279,169.278-115.357c-4.622-1.327-10.07-2.018-16.471-1.575c-3.749,0.268-7.023-2.581-7.281-6.346
		c-0.259-3.76,2.581-7.018,6.343-7.279c37.896-2.647,51.363,25.567,51.918,26.773C493.559,326.594,492.061,330.648,488.639,332.23z"
		/>
	<g id="emo_4_">
		<path fill="#030403" d="M491.976,323.176c-0.555-1.206-14.022-29.421-51.918-26.773c-3.762,0.262-6.602,3.52-6.343,7.279
			c0.258,3.765,3.532,6.613,7.281,6.346c6.4-0.442,11.849,0.248,16.471,1.575c-17.175,67.078-87.63,115.357-169.278,115.357h-0.375
			c-81.644,0-152.097-48.272-169.272-115.345c4.623-1.334,10.072-2.024,16.466-1.588c3.766,0.268,7.023-2.581,7.281-6.346
			c0.262-3.76-2.577-7.018-6.343-7.279c-37.953-2.653-51.362,25.567-51.919,26.773c-1.578,3.418-0.08,7.473,3.338,9.055
			c0.924,0.429,1.899,0.63,2.854,0.63c2.587,0,5.053-1.469,6.206-3.967c0.05-0.106,2.821-5.905,9.637-11.058
			c19.932,71.568,95.049,122.782,181.752,122.782h0.375c86.715,0,161.835-51.222,181.76-122.804
			c6.599,5.007,9.405,10.617,9.646,11.112c1.159,2.479,3.617,3.934,6.189,3.934c0.954,0,1.931-0.201,2.854-0.63
			C492.061,330.648,493.559,326.594,491.976,323.176z"/>
		<path fill="#030403" d="M213.19,252.869c13.195,0,23.891-22.159,23.891-49.496c0-27.336-10.695-49.496-23.891-49.496
			c-13.197,0-23.896,22.16-23.896,49.496C189.294,230.71,199.993,252.869,213.19,252.869z"/>
		<path fill="#030403" d="M328.198,226.854c10.435-9.107,21.426-13.33,32.665-12.556c20.504,1.411,35.874,18.831,36.029,19.007
			c1.366,1.581,3.29,2.393,5.233,2.393c1.595,0,3.201-0.551,4.503-1.676c2.896-2.49,3.225-6.857,0.731-9.751
			c-0.771-0.896-19.128-21.886-45.418-23.763c-6.253-0.445-12.392,0.236-18.383,1.991c22.102-27.621,45.72-25.985,47.013-25.872
			c3.773,0.379,7.161-2.369,7.56-6.152c0.402-3.797-2.354-7.201-6.145-7.604c-1.808-0.194-44.568-4.014-73.814,54.02
			c-0.214,0.423-0.383,0.857-0.503,1.298c-1.44,2.489-1.226,5.72,0.771,8.005C320.954,229.068,325.32,229.367,328.198,226.854z"/>
	</g>
</g>
</svg>
